<svg enable-background="new 54.445 122.138 688 349" height="349" viewBox="54.445 122.138 688 349" width="688" xmlns="http://www.w3.org/2000/svg" xmlns:xlink="http://www.w3.org/1999/xlink"><clipPath id="a"><path d="m0 0h841.891v595.275h-841.891z"/></clipPath><clipPath id="b"><path d="m0 0h841.891v595.275h-841.891z"/></clipPath><clipPath id="c"><path d="m0 0h841.891v595.275h-841.891z"/></clipPath><clipPath id="d"><path d="m0 0h841.891v595.275h-841.891z"/></clipPath><clipPath id="e"><path d="m0 0h841.891v595.275h-841.891z"/></clipPath><clipPath id="f"><path d="m0 0h841.891v595.275h-841.891z"/></clipPath><clipPath id="g"><path d="m0 0h841.891v595.275h-841.891z"/></clipPath><clipPath id="h"><path d="m0 0h841.891v595.275h-841.891z"/></clipPath><clipPath id="i"><path d="m0 0h841.891v595.275h-841.891z"/></clipPath><clipPath id="j"><path d="m0 0h841.891v595.275h-841.891z"/></clipPath><clipPath id="k"><path d="m0 0h841.891v595.275h-841.891z"/></clipPath><clipPath id="l"><path d="m0 0h841.891v595.275h-841.891z"/></clipPath><clipPath id="m"><path d="m0 0h841.891v595.275h-841.891z"/></clipPath><clipPath id="n"><path d="m0 0h841.891v595.275h-841.891z"/></clipPath><g fill="#fff"><path clip-path="url(#a)" d="m336.964 285.703c-10.226 0-21.876-3.448-25.563-5.231v-24.017h3.805l3.924 11.532c4.518 6.421 10.818 10.819 18.429 12.365 11.413 0 16.883-5.826 16.883-13.435 0-4.4-1.903-8.68-7.848-11.414-5.468-2.497-12.722-3.924-19.975-7.016-8.798-3.804-14.505-12.127-14.505-23.54 0-13.316 10.463-24.968 28.654-24.968 10.225 0 20.687 3.448 24.373 5.231v22.232h-3.804l-3.925-10.581c-4.518-6.421-8.798-9.986-16.407-11.532-8.322 0-14.505 5.111-14.505 11.889 0 4.994 1.427 8.917 8.086 11.89 5.35 2.378 12.602 3.924 19.854 7.015 9.036 3.924 14.861 11.89 14.861 22.352.002 15.338-11.293 27.228-32.337 27.228"/><path clip-path="url(#b)" d="m398.67 224.948c6.776 0 11.412 2.973 15.099 7.966v-6.302h25.087v3.448l-6.421 3.21v72.05l7.371 3.092v3.329h-34.122v-3.329l8.085-3.092v-27.702c-2.972 4.993-7.49 7.966-14.505 7.966-14.981 0-24.373-12.604-24.373-29.724 0-18.784 8.917-30.912 23.779-30.912m-1.785 45.299c1.427 4.398 4.398 7.015 7.966 7.015 4.874 0 7.015-2.616 8.917-5.47v-32.814c-1.665-2.497-4.637-5.707-8.917-5.707-3.448 0-6.777 1.545-8.204 6.777-1.189 4.28-1.545 9.868-1.545 15.813.001 5.35.475 10.224 1.783 14.386"/><path clip-path="url(#c)" d="m466.557 226.613v42.208c0 4.161 2.14 6.896 6.896 6.896 5.47 0 9.273-3.804 11.294-7.015v-35.549l-6.895-3.211v-3.329h25.562v50.769l6.421 3.21v3.448h-25.088v-9.274c-4.16 6.658-10.462 10.938-18.188 10.938-11.771 0-18.667-6.183-18.667-13.91v-38.641l-6.302-3.211v-3.329z"/><path clip-path="url(#d)" d="m513.399 284.039v-3.329l6.302-3.21v-44.229l-6.54-3.21v-3.448h25.206v50.887l6.064 3.21v3.329zm14.386-64.204c-5.825 0-10.582-4.756-10.582-10.582 0-5.825 4.757-10.581 10.582-10.581 5.945 0 10.582 4.756 10.582 10.581 0 5.827-4.637 10.582-10.582 10.582"/><path clip-path="url(#e)" d="m591.512 246.111-2.497-6.657c-1.07-.476-3.21-1.07-5.47-1.07-4.519 0-8.084 1.546-10.58 4.28v34.717l8.32 3.329v3.329h-33.171v-3.329l6.183-3.21v-44.229l-6.42-3.21v-3.449h25.088v10.939c4.873-7.847 10.817-12.484 18.069-12.484.832 0 2.616 0 4.4.357v20.687z"/><path clip-path="url(#f)" d="m642.159 246.111-2.497-6.657c-1.069-.476-3.21-1.07-5.469-1.07-4.518 0-8.084 1.546-10.581 4.28v34.717l8.322 3.329v3.329h-33.171v-3.329l6.183-3.21v-44.229l-6.421-3.21v-3.449h25.087v10.939c4.875-7.847 10.819-12.484 18.071-12.484.833 0 2.615 0 4.398.357v20.687z"/><path clip-path="url(#g)" d="m649.53 254.078c0-17.121 10.7-29.367 29.01-29.367 15.813 0 25.088 10.105 25.088 25.205v4.28l-34.955-.832v4.042c0 4.28.832 8.917 1.782 11.532 2.142 5.707 6.185 8.799 12.959 8.799 6.422 0 11.414-2.496 17.24-9.036h2.259v5.231c-4.875 6.777-12.959 11.651-23.184 11.651-18.785 0-30.199-9.749-30.199-31.505m35.313-6.064c0-1.902-.356-7.728-.714-10.225-.715-4.755-2.854-8.322-7.016-8.322-4.043 0-6.301 3.448-7.49 8.44-.595 2.854-.95 8.086-.95 11.058z"/><path clip-path="url(#h)" d="m707.075 284.039v-3.33l6.301-3.209v-72.883l-7.729-3.328v-3.33h26.395v79.541l5.944 3.209v3.33z"/><path clip-path="url(#i)" d="m378.339 320.75v75.972h-10.939l-41.85-71.93v63.607l9.75 3.925v3.446h-25.919v-3.446l9.392-3.925v-68.006l-9.392-3.567v-3.448h31.507l30.674 51.6v-44.228l-9.749-3.924v-3.448h25.918v3.448z"/><path clip-path="url(#j)" d="m388.443 365.809c0-17.121 10.701-29.365 29.011-29.365 15.813 0 25.086 10.105 25.086 25.204v4.281l-34.953-.832v4.042c0 4.28.832 8.917 1.782 11.532 2.141 5.707 6.183 8.799 12.959 8.799 6.421 0 11.414-2.497 17.24-9.037h2.259v5.232c-4.875 6.774-12.96 11.649-23.184 11.649-18.785.002-30.2-9.747-30.2-31.505m35.313-6.062c0-1.902-.355-7.729-.714-10.227-.714-4.755-2.854-8.321-7.015-8.321-4.043 0-6.301 3.446-7.49 8.44-.595 2.854-.95 8.085-.95 11.059z"/><path clip-path="url(#k)" d="m528.738 345.123-16.169 50.886h-12.127l-10.582-37.689-11.295 37.689h-12.127l-15.929-51.243-7.254-2.973v-3.448h32.22v3.448l-5.351 2.973 9.155 31.506 7.848-25.919-2.141-5.587-5.707-2.973v-3.448h31.388v3.448l-6.302 3.092 8.798 30.318 9.514-30.08-6.304-3.33-.355-3.448h19.854v3.448z"/><path clip-path="url(#l)" d="m535.635 392.561v-18.429h3.564l3.688 9.867c3.924 4.399 10.104 8.562 15.692 8.562 5.826 0 11.296-2.854 11.296-8.321 0-5.231-4.398-6.539-14.741-8.917-9.988-2.26-18.431-7.016-18.431-20.45 0-10.582 8.681-18.547 21.876-18.547 9.514 0 16.052 2.14 19.737 4.16v16.407h-3.448l-2.973-7.608c-3.448-4.281-7.609-7.491-13.435-8.203-6.063 0-9.75 2.854-9.75 7.251 0 5.945 5.351 7.135 12.364 8.917 14.03 3.093 21.163 7.849 21.163 20.808 0 10.344-8.085 19.143-24.254 19.143-10.101-.003-17.712-2.381-22.348-4.64"/><path clip-path="url(#m)" d="m172.449 295.707c.011.134.041.264.041.4 0 2.661-2.158 4.818-4.819 4.818-2.66 0-4.818-2.157-4.818-4.818 0-2.031 1.263-3.762 3.042-4.47-.595-.105-1.198-.184-1.823-.184-5.777 0-10.46 4.683-10.46 10.46 0 5.776 4.683 10.46 10.46 10.46s10.46-4.684 10.46-10.46c-.001-2.332-.791-4.466-2.083-6.206"/><path clip-path="url(#n)" d="m259.461 294.727c-1.763-53.21-45.923-95.686-99.78-94.729-51.369.912-93.703 41.936-96.157 93.255-.292 6.111-.021 12.105.763 17.938l.057-.057c2.356 17.644 9.4 33.802 19.844 47.183-6.912-13.432-10.815-28.665-10.815-44.811 0-7.303 2.9-14.308 8.063-19.473l15.478-15.485c5.332-5.331 8.326-12.563 8.326-20.102v-40.34l8.418 4.19c7.546 3.757 13.775 9.714 17.865 17.085l9.945 17.927h19.033 16.156c12.374 0 23.812 6.445 30.261 16.94l24.251 42.423c3.68 6.436 3.681 14.336.001 20.771l-4.406 7.715c-4.671 8.172-13.36 13.215-22.771 13.215h-3.785c2.283-1.146 4.238-2.923 5.543-5.207l7.476-13.082c1.663-.425 3.188-1.485 4.157-3.185l4.486-7.855c.708-1.24-.188-2.782-1.616-2.782h-17.436c-1.427 0-2.323 1.542-1.615 2.782l4.485 7.855c.986 1.729 2.549 2.784 4.245 3.194l-6.66 11.657c-1.83 3.204-5.26 5.192-8.953 5.192h-41.724c-7.866 0-14.266-6.398-14.266-14.266 0-7.864 6.399-14.264 14.266-14.264h26.977c.788 0 1.426-.64 1.426-1.428s-.638-1.427-1.426-1.427h-26.977c-9.439 0-17.118 7.679-17.118 17.117 0 8.132 5.704 14.943 13.316 16.679-9.814 2.28-18.414 8.5-23.599 17.424l-5.738 9.876c12.841 6.099 27.217 9.486 42.393 9.431 55.438-.208 99.448-45.945 97.611-101.356m-80.768-40.206.106.001-18.301-4.566v-31.848l8.697 4.329c7.372 3.67 13.491 9.443 17.585 16.589l13.468 23.561c-6.122-4.768-13.63-7.643-21.555-8.066m-17.99 120.847-10.017 17.263c-9.411-1.06-18.532-3.497-27.182-7.264l4.155-7.151c3.915-6.74 9.992-11.83 17.054-14.609 2.74-1.078 5.721-1.444 8.644-1.087.146.02.293.037.438.06l15.884 2.205c-3.54 2.94-6.604 6.496-8.976 10.583"/></g></svg>