<?xml version="1.0" encoding="utf-8"?>
<!-- Generator: Adobe Illustrator 16.0.0, SVG Export Plug-In . SVG Version: 6.00 Build 0)  -->
<!DOCTYPE svg PUBLIC "-//W3C//DTD SVG 1.1//EN" "http://www.w3.org/Graphics/SVG/1.1/DTD/svg11.dtd">
<svg version="1.1" id="Ebene_1" xmlns="http://www.w3.org/2000/svg" xmlns:xlink="http://www.w3.org/1999/xlink" x="0px" y="0px"
	 width="282px" height="251px" viewBox="0 0 282 251" enable-background="new 0 0 282 251" xml:space="preserve">
<g>
	<defs>
		<rect id="SVGID_1_" x="-270" y="-169.276" width="841.89" height="595.276"/>
	</defs>
	<clipPath id="SVGID_2_">
		<use xlink:href="#SVGID_1_"  overflow="visible"/>
	</clipPath>
	<path clip-path="url(#SVGID_2_)" fill="#010102" d="M161.932,126.034c0.012,0.135,0.041,0.264,0.041,0.401
		c0,2.662-2.158,4.819-4.819,4.819s-4.818-2.157-4.818-4.819c0-2.032,1.263-3.762,3.042-4.47c-0.595-0.105-1.198-0.184-1.822-0.184
		c-5.777,0-10.46,4.683-10.46,10.46c0,5.775,4.683,10.46,10.46,10.46c5.775,0,10.46-4.685,10.46-10.46
		C164.015,129.907,163.224,127.774,161.932,126.034"/>
	<path clip-path="url(#SVGID_2_)" fill="#010102" d="M248.943,125.054c-1.763-53.21-45.923-95.686-99.782-94.73
		C97.793,31.236,55.46,72.26,53.005,123.579c-0.292,6.112-0.02,12.106,0.763,17.939l0.057-0.058
		c2.356,17.644,9.4,33.803,19.844,47.184c-6.913-13.432-10.816-28.665-10.816-44.811c0-7.303,2.9-14.307,8.062-19.473l15.478-15.485
		c5.332-5.331,8.327-12.562,8.327-20.101v-40.34l8.417,4.19c7.546,3.757,13.775,9.714,17.865,17.085l9.947,17.927h19.032h16.156
		c12.374,0,23.813,6.445,30.262,16.94l24.25,42.422c3.68,6.436,3.681,14.337,0.002,20.773l-4.407,7.714
		c-4.67,8.172-13.359,13.215-22.771,13.215h-3.784c2.282-1.146,4.237-2.923,5.542-5.208l7.476-13.081
		c1.663-0.424,3.188-1.485,4.158-3.184l4.485-7.857c0.708-1.239-0.188-2.782-1.616-2.782h-17.435c-1.428,0-2.324,1.543-1.616,2.782
		l4.486,7.857c0.986,1.728,2.548,2.784,4.245,3.194l-6.661,11.657c-1.83,3.204-5.26,5.193-8.953,5.193h-41.724
		c-7.866,0-14.265-6.399-14.265-14.266c0-7.864,6.399-14.265,14.265-14.265h26.977c0.788,0,1.426-0.638,1.426-1.426
		s-0.638-1.428-1.426-1.428h-26.977c-9.439,0-17.118,7.68-17.118,17.118c0,8.132,5.704,14.943,13.317,16.679
		c-9.814,2.28-18.414,8.5-23.599,17.424l-5.737,9.875c12.84,6.098,27.217,9.487,42.391,9.431
		C206.77,226.203,250.781,180.466,248.943,125.054 M168.175,84.848h0.108l-18.302-4.566V48.435l8.697,4.329
		c7.373,3.67,13.491,9.443,17.585,16.589l13.468,23.56C183.607,88.147,176.1,85.272,168.175,84.848 M150.185,205.695l-10.017,17.263
		c-9.41-1.06-18.532-3.497-27.181-7.264l4.155-7.151c3.916-6.74,9.992-11.831,17.054-14.609c2.741-1.078,5.72-1.445,8.644-1.087
		c0.146,0.019,0.292,0.037,0.438,0.059l15.883,2.205C155.621,198.052,152.557,201.608,150.185,205.695"/>
</g>
</svg>
