<?xml version="1.0" encoding="UTF-8"?>
<svg width="330px" height="180px" viewBox="0 0 429 201" version="1.1" xmlns="http://www.w3.org/2000/svg" xmlns:xlink="http://www.w3.org/1999/xlink">
    <!-- Generator: Sketch 64 (93537) - https://sketch.com -->
    <title>sn-logo-name</title>
    <desc>Created with Sketch.</desc>
    <g id="Page-1" stroke="none" stroke-width="1" fill="none" fill-rule="evenodd">
        <g id="sn-logo-name" fill="#fff" fill-rule="nonzero">
            <path d="M27.964,88.703 C17.738,88.703 6.088,85.255 2.401,83.472 L2.401,59.455 L6.206,59.455 L10.13,70.987 C14.648,77.408 20.948,81.806 28.559,83.352 C39.972,83.352 45.442,77.526 45.442,69.917 C45.442,65.517 43.539,61.237 37.594,58.503 C32.126,56.006 24.872,54.579 17.619,51.487 C8.821,47.683 3.114,39.36 3.114,27.947 C3.114,14.631 13.577,2.979 31.768,2.979 C41.993,2.979 52.455,6.427 56.141,8.21 L56.141,30.442 L52.337,30.442 L48.412,19.861 C43.894,13.44 39.614,9.875 32.005,8.329 C23.683,8.329 17.5,13.44 17.5,20.218 C17.5,25.212 18.927,29.135 25.586,32.108 C30.936,34.486 38.188,36.032 45.44,39.123 C54.476,43.047 60.301,51.013 60.301,61.475 C60.303,76.813 49.008,88.703 27.964,88.703" id="Path"></path>
            <path d="M89.67,27.948 C96.446,27.948 101.082,30.921 104.769,35.914 L104.769,29.612 L129.856,29.612 L129.856,33.06 L123.435,36.27 L123.435,108.32 L130.806,111.412 L130.806,114.741 L96.684,114.741 L96.684,111.412 L104.769,108.32 L104.769,80.618 C101.797,85.611 97.279,88.584 90.264,88.584 C75.283,88.584 65.891,75.98 65.891,58.86 C65.891,40.076 74.808,27.948 89.67,27.948 M87.885,73.247 C89.312,77.645 92.283,80.262 95.851,80.262 C100.725,80.262 102.866,77.646 104.768,74.792 L104.768,41.978 C103.103,39.481 100.131,36.271 95.851,36.271 C92.403,36.271 89.074,37.816 87.647,43.048 C86.458,47.328 86.102,52.916 86.102,58.861 C86.103,64.211 86.577,69.085 87.885,73.247" id="Shape"></path>
            <path d="M157.557,29.613 L157.557,71.821 C157.557,75.982 159.697,78.717 164.453,78.717 C169.923,78.717 173.726,74.913 175.747,71.702 L175.747,36.153 L168.852,32.942 L168.852,29.613 L194.414,29.613 L194.414,80.382 L200.835,83.592 L200.835,87.04 L175.747,87.04 L175.747,77.766 C171.587,84.424 165.285,88.704 157.559,88.704 C145.788,88.704 138.892,82.521 138.892,74.794 L138.892,36.153 L132.59,32.942 L132.59,29.613 L157.557,29.613 Z" id="Path"></path>
            <path d="M204.399,87.039 L204.399,83.71 L210.701,80.5 L210.701,36.271 L204.161,33.061 L204.161,29.613 L229.367,29.613 L229.367,80.5 L235.431,83.71 L235.431,87.039 L204.399,87.039 Z M218.785,22.835 C212.96,22.835 208.203,18.079 208.203,12.253 C208.203,6.428 212.96,1.672 218.785,1.672 C224.73,1.672 229.367,6.428 229.367,12.253 C229.367,18.08 224.73,22.835 218.785,22.835" id="Shape"></path>
            <path d="M282.512,49.111 L280.015,42.454 C278.945,41.978 276.805,41.384 274.545,41.384 C270.026,41.384 266.461,42.93 263.965,45.664 L263.965,80.381 L272.285,83.71 L272.285,87.039 L239.114,87.039 L239.114,83.71 L245.297,80.5 L245.297,36.271 L238.877,33.061 L238.877,29.612 L263.965,29.612 L263.965,40.551 C268.838,32.704 274.782,28.067 282.034,28.067 C282.866,28.067 284.65,28.067 286.434,28.424 L286.434,49.111 L282.512,49.111 Z" id="Path"></path>
            <path d="M333.159,49.111 L330.662,42.454 C329.593,41.978 327.452,41.384 325.193,41.384 C320.675,41.384 317.109,42.93 314.612,45.664 L314.612,80.381 L322.934,83.71 L322.934,87.039 L289.763,87.039 L289.763,83.71 L295.946,80.5 L295.946,36.271 L289.525,33.061 L289.525,29.612 L314.612,29.612 L314.612,40.551 C319.487,32.704 325.431,28.067 332.683,28.067 C333.516,28.067 335.298,28.067 337.081,28.424 L337.081,49.111 L333.159,49.111 Z" id="Path"></path>
            <path d="M340.53,57.078 C340.53,39.957 351.23,27.711 369.54,27.711 C385.353,27.711 394.628,37.816 394.628,52.916 L394.628,57.196 L359.673,56.364 L359.673,60.406 C359.673,64.686 360.505,69.323 361.455,71.938 C363.597,77.645 367.64,80.737 374.414,80.737 C380.836,80.737 385.828,78.241 391.654,71.701 L393.913,71.701 L393.913,76.932 C389.038,83.709 380.954,88.583 370.729,88.583 C351.944,88.583 340.53,78.834 340.53,57.078 M375.843,51.014 C375.843,49.112 375.487,43.286 375.129,40.789 C374.414,36.034 372.275,32.467 368.113,32.467 C364.07,32.467 361.812,35.915 360.623,40.907 C360.028,43.761 359.673,48.993 359.673,51.965 L375.843,51.014 Z" id="Shape"></path>
            <polygon id="Path" points="398.075 87.039 398.075 83.709 404.376 80.5 404.376 7.617 396.647 4.289 396.647 0.959 423.042 0.959 423.042 80.5 428.986 83.709 428.986 87.039"></polygon>
            <polygon id="Path" points="69.339 123.75 69.339 199.722 58.4 199.722 16.55 127.792 16.55 191.399 26.3 195.324 26.3 198.77 0.381 198.77 0.381 195.324 9.773 191.399 9.773 123.393 0.381 119.826 0.381 116.378 31.888 116.378 62.562 167.978 62.562 123.75 52.813 119.826 52.813 116.378 78.731 116.378 78.731 119.826"></polygon>
            <path d="M79.443,168.809 C79.443,151.688 90.144,139.444 108.454,139.444 C124.267,139.444 133.54,149.549 133.54,164.648 L133.54,168.929 L98.587,168.097 L98.587,172.139 C98.587,176.419 99.419,181.056 100.369,183.671 C102.51,189.378 106.552,192.47 113.328,192.47 C119.749,192.47 124.742,189.973 130.568,183.433 L132.827,183.433 L132.827,188.665 C127.952,195.439 119.867,200.314 109.643,200.314 C90.858,200.316 79.443,190.567 79.443,168.809 M114.756,162.747 C114.756,160.845 114.401,155.018 114.042,152.52 C113.328,147.765 111.188,144.199 107.027,144.199 C102.984,144.199 100.726,147.645 99.537,152.639 C98.942,155.493 98.587,160.724 98.587,163.698 L114.756,162.747 Z" id="Shape"></path>
            <polygon id="Path" points="219.738 148.123 203.569 199.009 191.442 199.009 180.86 161.32 169.565 199.009 157.438 199.009 141.509 147.766 134.255 144.793 134.255 141.345 166.475 141.345 166.475 144.793 161.124 147.766 170.279 179.272 178.127 153.353 175.986 147.766 170.279 144.793 170.279 141.345 201.667 141.345 201.667 144.793 195.365 147.885 204.163 178.203 213.677 148.123 207.373 144.793 207.018 141.345 226.872 141.345 226.872 144.793"></polygon>
            <path d="M226.635,195.561 L226.635,177.132 L230.199,177.132 L233.887,186.999 C237.811,191.398 243.991,195.561 249.579,195.561 C255.405,195.561 260.875,192.707 260.875,187.24 C260.875,182.009 256.477,180.701 246.134,178.323 C236.146,176.063 227.703,171.307 227.703,157.873 C227.703,147.291 236.384,139.326 249.579,139.326 C259.093,139.326 265.631,141.466 269.316,143.486 L269.316,159.893 L265.868,159.893 L262.895,152.285 C259.447,148.004 255.286,144.794 249.46,144.082 C243.397,144.082 239.71,146.936 239.71,151.333 C239.71,157.278 245.061,158.468 252.074,160.25 C266.104,163.343 273.237,168.099 273.237,181.058 C273.237,191.402 265.152,200.201 248.983,200.201 C238.882,200.198 231.271,197.82 226.635,195.561" id="Path"></path>
        </g>
    </g>
</svg>