<?xml version="1.0" encoding="UTF-8" standalone="no"?>
<!DOCTYPE svg PUBLIC "-//W3C//DTD SVG 1.1//EN" "http://www.w3.org/Graphics/SVG/1.1/DTD/svg11.dtd">
<svg width="100%" height="100%" viewBox="0 0 232 232" version="1.1" xmlns="http://www.w3.org/2000/svg" xmlns:xlink="http://www.w3.org/1999/xlink" xml:space="preserve" xmlns:serif="http://www.serif.com/" style="fill-rule:evenodd;clip-rule:evenodd;stroke-miterlimit:10;">
    <g id="ArtBoard1" transform="matrix(0.113281,0,0,0.151042,0,0)">
        <rect x="0" y="0" width="2048" height="1536" style="fill:none;"/>
        <clipPath id="_clip1">
            <rect x="0" y="0" width="2048" height="1536"/>
        </clipPath>
        <g clip-path="url(#_clip1)">
            <g transform="matrix(1.05198,0,0,1.04464,-17.0281,-1.03334)">
                <g transform="matrix(16.8334,0,0,12.7138,977.868,1460.71)">
                    <path d="M0,-114.311C-31.087,-113.942 -56.369,-88.561 -56.629,-57.474C-56.651,-54.698 -56.477,-51.969 -56.118,-49.297L-56.084,-49.33C-54.707,-39.015 -50.589,-29.566 -44.482,-21.744C-48.524,-29.597 -50.807,-38.503 -50.807,-47.942L-50.807,-48.015C-50.801,-52.271 -49.073,-56.344 -46.064,-59.355L-37.043,-68.381C-33.927,-71.498 -32.176,-75.725 -32.176,-80.133L-32.176,-103.717L-27.254,-101.268C-22.843,-99.071 -19.2,-95.588 -16.81,-91.279L-10.994,-80.798L9.578,-80.798C17.039,-80.798 23.927,-76.798 27.625,-70.319L44.92,-40.019L38.872,-29.437C36.143,-24.66 31.062,-21.712 25.56,-21.712L-1.808,-21.712C-9.514,-21.712 -16.638,-17.611 -20.509,-10.949L-23.863,-5.175C-16.355,-1.61 -7.951,0.372 0.921,0.338C33.334,0.214 59.065,-26.526 57.991,-58.922C57.478,-74.419 50.813,-88.36 40.36,-98.379C29.907,-108.398 15.666,-114.497 0,-114.311" style="fill-rule:nonzero;"/>
                </g>
                <g transform="matrix(16.8334,0,0,12.7138,977.868,1460.71)">
                    <path d="M0,-114.311C-31.087,-113.942 -56.369,-88.561 -56.629,-57.474C-56.651,-54.698 -56.477,-51.969 -56.118,-49.297L-56.084,-49.33C-54.707,-39.015 -50.589,-29.566 -44.482,-21.744C-48.524,-29.597 -50.807,-38.503 -50.807,-47.942L-50.807,-48.015C-50.801,-52.271 -49.073,-56.344 -46.064,-59.355L-37.043,-68.381C-33.927,-71.498 -32.176,-75.725 -32.176,-80.133L-32.176,-103.717L-27.254,-101.268C-22.843,-99.071 -19.2,-95.588 -16.81,-91.279L-10.994,-80.798L9.578,-80.798C17.039,-80.798 23.927,-76.798 27.625,-70.319L44.92,-40.019L38.872,-29.437C36.143,-24.66 31.062,-21.712 25.56,-21.712L-1.808,-21.712C-9.514,-21.712 -16.638,-17.611 -20.509,-10.949L-23.863,-5.175C-16.355,-1.61 -7.951,0.372 0.921,0.338C33.334,0.214 59.065,-26.526 57.991,-58.922C56.964,-89.917 31.331,-114.683 0,-114.311Z" style="fill:none;fill-rule:nonzero;stroke:black;stroke-width:1.1px;"/>
                </g>
                <g transform="matrix(-8.34487,11.0416,14.6194,6.30266,1489.01,1107.24)">
                    <path d="M-14.274,-0.578L-7.111,-0.578C-4.065,-0.579 -2.174,-3.892 -3.722,-6.516L-7.364,-12.683L-14.274,-0.578Z" style="fill-rule:nonzero;stroke:black;stroke-width:0.87px;"/>
                </g>
                <g transform="matrix(16.8334,0,0,12.7138,1139.1,275.3)">
                    <path d="M0,12.44C7.461,12.44 14.349,16.44 18.047,22.919L5.921,1.75C3.527,-2.428 -0.051,-5.803 -4.36,-7.948L-9.445,-10.479L-9.445,12.44L0,12.44Z" style="fill:white;fill-rule:nonzero;stroke:black;stroke-width:1.04px;"/>
                </g>
                <g transform="matrix(16.8334,0,0,12.7138,1006.39,1324.83)">
                    <path d="M0,-0.251C3.87,-6.92 10.997,-11.024 18.707,-11.024L-3.502,-11.024C-11.208,-11.024 -18.332,-6.924 -22.203,-0.262L-25.558,5.513C-19.655,8.315 -13.199,10.138 -6.397,10.773L0,-0.251Z" style="fill:white;fill-rule:nonzero;stroke:black;stroke-width:1.26px;"/>
                </g>
                <g transform="matrix(16.8334,0,0,12.7138,914.133,1260.49)">
                    <path d="M0,-3.506L11.568,-1.9C15.188,-4.499 19.583,-5.964 24.187,-5.964L1.979,-5.964C-4.779,-5.964 -11.088,-2.811 -15.149,2.458C-11.53,-1.993 -5.805,-4.312 0,-3.506Z" style="fill-rule:nonzero;stroke:black;stroke-width:0.87px;"/>
                </g>
                <g transform="matrix(0,-12.7138,-16.8334,0,1018.09,687.101)">
                    <path d="M-6.134,-6.135C-9.522,-6.135 -12.269,-3.389 -12.269,-0.001C-12.269,3.386 -9.522,6.134 -6.134,6.134C-2.747,6.134 0,3.386 0,-0.001C0,-3.389 -2.747,-6.135 -6.134,-6.135" style="fill-rule:nonzero;"/>
                </g>
                <g transform="matrix(0,-12.7138,-16.8334,0,1018.09,687.101)">
                    <circle cx="-6.134" cy="-0.001" r="6.134" style="fill:none;stroke:black;stroke-width:0.87px;"/>
                </g>
                <g transform="matrix(0,-12.7138,-16.8334,0,1053.64,685.883)">
                    <path d="M-2.826,-2.826C-4.387,-2.826 -5.651,-1.559 -5.651,0C-5.651,1.561 -4.387,2.826 -2.826,2.826C-1.265,2.826 0,1.561 0,0C0,-1.559 -1.265,-2.826 -2.826,-2.826" style="fill:white;fill-rule:nonzero;"/>
                </g>
                <g transform="matrix(16.8334,0,0,12.7138,1160.22,400.005)">
                    <path d="M0,2.67L-10.7,0L-10.7,2.631L0,2.67Z" style="fill-rule:nonzero;stroke:black;stroke-width:0.87px;"/>
                </g>
                <g transform="matrix(16.8334,0,0,12.7138,1513.38,1122.64)">
                    <path d="M0,-9.016L-5.96,1.414C-7.185,3.556 -9.463,4.879 -11.931,4.879L-19.398,4.879L-34.163,4.879C-39.348,4.879 -43.55,0.676 -43.55,-4.508C-43.55,-9.693 -39.348,-13.895 -34.163,-13.895L-20.426,-13.895" style="fill:none;fill-rule:nonzero;stroke:black;stroke-width:1.1px;"/>
                </g>
            </g>
        </g>
    </g>
</svg>
